<?xml version="1.0" encoding="UTF-8" standalone="no"?>
<svg
   xmlns:dc="http://purl.org/dc/elements/1.1/"
   xmlns:cc="http://creativecommons.org/ns#"
   xmlns:rdf="http://www.w3.org/1999/02/22-rdf-syntax-ns#"
   xmlns:svg="http://www.w3.org/2000/svg"
   xmlns="http://www.w3.org/2000/svg"
   xmlns:sodipodi="http://sodipodi.sourceforge.net/DTD/sodipodi-0.dtd"
   xmlns:inkscape="http://www.inkscape.org/namespaces/inkscape"
   viewBox="0 0 282.96132 256.57733"
   height="256.57733"
   width="282.96133"
   xml:space="preserve"
   id="svg2"
   version="1.1"
   sodipodi:docname="logo.svg"
   inkscape:version="0.92.4 (33fec40, 2019-01-16)"><sodipodi:namedview
     pagecolor="#ffffff"
     bordercolor="#666666"
     borderopacity="1"
     objecttolerance="10"
     gridtolerance="10"
     guidetolerance="10"
     inkscape:pageopacity="0"
     inkscape:pageshadow="2"
     inkscape:window-width="1920"
     inkscape:window-height="1025"
     id="namedview3781"
     showgrid="false"
     fit-margin-top="0"
     fit-margin-left="0"
     fit-margin-right="0"
     fit-margin-bottom="0"
     inkscape:zoom="1.04875"
     inkscape:cx="141.48085"
     inkscape:cy="128.57761"
     inkscape:window-x="0"
     inkscape:window-y="27"
     inkscape:window-maximized="1"
     inkscape:current-layer="svg2" /><metadata
     id="metadata8"><rdf:RDF><cc:Work
         rdf:about=""><dc:format>image/svg+xml</dc:format><dc:type
           rdf:resource="http://purl.org/dc/dcmitype/StillImage" /><dc:title></dc:title></cc:Work></rdf:RDF></metadata><defs
     id="defs6"><clipPath
       id="clipPath18"
       clipPathUnits="userSpaceOnUse"><path
         id="path16"
         d="M 0,600 H 800 V 0 H 0 Z"
         inkscape:connector-curvature="0" /></clipPath></defs><g
     transform="matrix(1.3333333,0,0,-1.3333333,-391.85252,527.99972)"
     id="g10"><g
       id="g12"><g
         clip-path="url(#clipPath18)"
         id="g14"><g
           transform="translate(377.6968,349.9746)"
           id="g20"><path
             id="path22"
             style="fill:#f15a24;fill-opacity:1;fill-rule:nonzero;stroke:none"
             d="m 0,0 c 0,-3.209 -2.601,-5.81 -5.81,-5.81 -3.209,0 -5.81,2.601 -5.81,5.81 0,3.209 2.601,5.81 5.81,5.81 C -2.601,5.81 0,3.209 0,0"
             inkscape:connector-curvature="0" /></g><g
           transform="translate(431.5566,349.9746)"
           id="g24"><path
             id="path26"
             style="fill:#f15a24;fill-opacity:1;fill-rule:nonzero;stroke:none"
             d="m 0,0 c 0,-3.209 -2.601,-5.81 -5.81,-5.81 -3.209,0 -5.81,2.601 -5.81,5.81 0,3.209 2.601,5.81 5.81,5.81 C -2.601,5.81 0,3.209 0,0"
             inkscape:connector-curvature="0" /></g><g
           transform="translate(464.8184,347.2168)"
           id="g28"><path
             id="path30"
             style="fill:#f15a24;fill-opacity:1;fill-rule:nonzero;stroke:none"
             d="m 0,0 c -8.634,-8.695 -27.164,-15.288 -49.862,-17.365 0.908,-1.382 1.436,-6.416 1.436,-8.027 0,-6.143 -7.339,-7.61 -16.392,-7.61 -9.054,0 -16.392,1.467 -16.392,7.61 0,1.581 0.501,6.593 1.378,7.955 -23.007,2.007 -41.818,8.649 -50.536,17.434 v 4.786 c 0,18.139 29.85,33.462 65.184,33.462 C -29.851,38.245 0,22.922 0,4.783 Z m -64.186,-59.718 c -7.115,0 -13.226,4.83 -15.973,11.758 0,0 6.092,-2.2 15.453,-2.2 9.361,0 16.493,2.2 16.493,2.2 -2.747,-6.928 -8.858,-11.758 -15.973,-11.758 M 41.292,-32.442 C 37.871,-13.333 20.716,-0.91 10.325,7.306 8.132,30.754 -24.192,48.783 -65.184,48.783 c -41.06,0 -73.424,-18.09 -75.52,-41.595 -16.057,-12.831 -26.706,-22.888 -30.225,-39.63 0,0 11.21,6.291 21.295,5.855 0,0 -17.489,-19.881 -16.904,-39.785 0,0 15.514,10.83 23.417,9.952 0,0 -9.952,-11.709 -9.952,-43.908 0,0 18.149,2.635 26.93,16.684 0,0 -5.269,-23.124 1.756,-42.443 0,0 8.197,14.051 21.076,25.174 0,0 6.44,-25.174 15.807,-42.737 0,0 10.392,9.293 22.686,27.441 12.294,-18.148 22.685,-27.441 22.685,-27.441 9.367,17.563 15.807,42.737 15.807,42.737 12.88,-11.123 21.076,-25.174 21.076,-25.174 7.025,19.319 1.756,42.443 1.756,42.443 8.782,-14.049 26.931,-16.684 26.931,-16.684 0,32.199 -9.954,43.908 -9.954,43.908 7.904,0.878 23.418,-9.952 23.418,-9.952 0.585,19.904 -16.904,39.785 -16.904,39.785 8.804,0.041 21.295,-5.855 21.295,-5.855"
             inkscape:connector-curvature="0" /></g></g></g></g></svg>