<?xml version="1.0" standalone="no"?>
<!DOCTYPE svg PUBLIC "-//W3C//DTD SVG 20010904//EN"
 "http://www.w3.org/TR/2001/REC-SVG-20010904/DTD/svg10.dtd">
<svg version="1.0" xmlns="http://www.w3.org/2000/svg"
 width="566.000000pt" height="566.000000pt" viewBox="0 0 566.000000 566.000000"
 preserveAspectRatio="xMidYMid meet">
<metadata>
Created by potrace 1.11, written by Peter Selinger 2001-2013
</metadata>
<g transform="translate(0.000000,566.000000) scale(0.100000,-0.100000)"
fill="#000000" stroke="none">
<path d="M2567 5384 c-2 -3 -29 -6 -58 -9 -62 -4 -161 -15 -189 -20 -10 -2
-40 -7 -67 -10 -26 -4 -75 -13 -108 -21 -33 -7 -71 -15 -85 -18 -14 -3 -43
-10 -65 -16 -22 -6 -49 -13 -60 -15 -140 -33 -469 -169 -563 -234 -15 -10 -52
-34 -82 -54 -30 -19 -68 -47 -85 -61 -16 -14 -33 -26 -36 -26 -11 0 -159 -156
-200 -210 -39 -53 -90 -143 -88 -156 0 -4 -3 -10 -8 -13 -12 -8 -51 -133 -59
-186 -6 -42 -28 -85 -44 -85 -5 0 -17 -8 -27 -18 -10 -10 -40 -36 -68 -58 -27
-21 -52 -42 -55 -45 -3 -3 -46 -42 -97 -87 -134 -120 -303 -304 -303 -330 0
-6 -4 -12 -9 -14 -13 -5 -74 -106 -113 -188 -39 -82 -106 -280 -95 -280 3 0
39 16 82 35 135 62 270 100 392 111 37 3 71 8 76 11 15 9 6 -23 -10 -39 -24
-22 -38 -40 -52 -65 -6 -12 -17 -27 -24 -35 -12 -13 -60 -84 -109 -163 -23
-37 -109 -204 -129 -250 -11 -26 -32 -79 -34 -85 0 -3 -8 -27 -18 -55 -25 -75
-48 -182 -53 -249 -2 -33 -7 -73 -9 -88 -3 -15 -1 -28 4 -28 6 0 58 29 116 65
58 35 105 61 105 58 0 -3 8 1 18 9 47 40 244 113 330 122 48 5 52 -4 22 -49
-51 -75 -119 -248 -152 -385 -25 -107 -28 -119 -33 -150 -2 -14 -6 -34 -8 -45
-3 -11 -8 -49 -12 -85 -3 -36 -9 -78 -11 -93 -5 -31 -13 -172 -17 -285 l-2
-73 40 5 c22 2 41 5 43 6 1 2 5 3 10 4 35 8 154 52 216 80 144 66 299 188 375
295 l32 45 -5 -35 c-5 -31 -10 -69 -21 -139 -24 -150 -24 -527 0 -640 3 -14 7
-41 10 -60 2 -19 14 -69 25 -110 11 -41 23 -82 25 -90 2 -8 4 -17 5 -20 1 -3
2 -8 1 -12 -4 -26 23 3 75 79 32 49 62 93 66 98 10 13 141 176 170 212 13 15
77 81 142 147 l119 120 14 -54 c12 -49 66 -228 96 -320 6 -19 12 -37 12 -40 1
-3 7 -17 13 -33 7 -15 14 -38 16 -50 15 -71 180 -472 249 -605 l23 -43 74 77
c41 42 82 83 91 93 9 9 65 74 124 146 59 72 116 140 126 153 11 12 19 25 19
28 0 3 6 11 13 18 6 7 20 24 29 37 10 13 37 51 61 84 24 33 48 69 54 79 10 17
15 13 54 -43 24 -35 70 -96 102 -137 31 -40 57 -78 57 -83 0 -5 3 -11 8 -13 4
-1 38 -41 76 -88 89 -108 111 -132 226 -253 l96 -99 41 84 c22 46 59 129 82
183 23 55 47 111 53 125 17 39 23 57 63 170 20 58 39 112 42 120 4 8 7 17 8
20 0 3 18 59 39 125 35 110 47 150 81 274 l12 45 124 -125 c68 -68 133 -136
144 -149 11 -14 47 -59 80 -100 32 -41 63 -76 67 -78 4 -2 8 -10 8 -17 0 -7 3
-15 8 -17 4 -1 21 -23 37 -48 17 -25 34 -49 38 -55 5 -5 17 -25 28 -44 12 -19
24 -30 29 -25 10 11 55 172 65 234 4 25 9 56 11 70 19 107 24 397 10 520 -4
30 -9 80 -12 110 -10 90 -12 103 -23 140 l-10 35 32 -40 c104 -128 240 -235
384 -301 73 -34 170 -69 217 -79 54 -11 67 -14 75 -19 19 -12 20 13 7 235 -4
64 -8 125 -10 135 -4 23 -14 95 -21 149 -3 22 -7 51 -10 65 -3 14 -10 50 -16
80 -16 83 -67 248 -95 308 -13 29 -24 55 -24 58 0 3 -16 33 -35 65 -40 69 -42
75 -17 76 19 1 139 -25 162 -34 8 -3 17 -7 20 -8 3 -1 19 -8 35 -15 17 -7 32
-14 35 -15 3 0 16 -7 30 -15 14 -8 30 -15 35 -16 6 -1 39 -18 73 -38 35 -20
68 -36 72 -36 5 0 10 -3 12 -7 2 -5 29 -25 61 -46 l57 -37 1 27 c5 119 -27
273 -93 443 -34 87 -113 247 -136 273 -8 9 -12 17 -8 17 4 0 -4 15 -18 33 -15
19 -26 39 -26 45 0 7 -4 12 -8 12 -4 0 -15 13 -25 29 -23 40 -110 155 -119
159 -5 2 -8 8 -8 13 0 12 84 5 185 -16 55 -11 199 -58 283 -92 46 -18 85 -33
88 -33 3 0 3 9 -1 19 -3 11 -8 30 -10 42 -16 82 -116 303 -172 378 -112 153
-307 357 -418 439 -5 4 -49 40 -98 79 -48 40 -94 76 -103 81 -9 5 -20 29 -25
53 -15 77 -18 91 -30 128 -12 38 -87 193 -98 201 -3 3 -19 24 -34 46 -45 67
-175 191 -278 265 -53 38 -101 69 -107 69 -6 0 -12 4 -14 8 -4 10 -181 101
-258 132 -30 12 -64 26 -75 31 -21 8 -172 59 -190 63 -5 2 -30 8 -55 15 -25 7
-52 15 -60 16 -8 2 -49 11 -90 20 -41 9 -84 18 -95 20 -11 2 -38 6 -60 9 -22
4 -51 9 -65 11 -14 2 -50 7 -80 10 -30 3 -75 8 -100 11 -55 7 -567 14 -573 8z
m553 -288 c25 -3 63 -7 85 -11 22 -3 58 -8 80 -10 22 -3 51 -7 65 -10 14 -3
36 -7 50 -10 25 -5 130 -27 140 -30 3 -1 19 -5 35 -9 17 -5 62 -17 100 -29 39
-11 75 -21 80 -23 36 -7 236 -93 315 -136 204 -109 357 -248 430 -392 22 -45
43 -92 46 -106 9 -39 14 -250 6 -250 -4 0 -23 -15 -42 -33 -81 -76 -266 -178
-425 -236 -49 -18 -94 -34 -100 -35 -5 -2 -17 -6 -25 -9 -15 -6 -193 -54 -233
-63 -12 -3 -33 -7 -47 -10 -14 -2 -59 -11 -100 -19 -74 -14 -173 -28 -280 -41
-68 -7 -71 -9 -60 -37 22 -55 32 -176 19 -229 -18 -69 -90 -118 -214 -143 -61
-13 -375 -14 -425 -1 -14 3 -38 8 -55 12 -52 11 -125 56 -147 92 -15 24 -21
50 -21 91 0 75 11 159 24 182 12 24 7 26 -80 34 -73 6 -169 20 -291 41 -91 16
-371 87 -417 105 -44 18 -65 26 -103 39 -131 47 -327 159 -407 234 l-43 39 4
106 c6 173 54 278 191 416 235 235 652 404 1160 470 28 4 76 8 109 10 32 2 60
6 62 8 6 5 456 -1 514 -7z m-590 -2312 c178 -40 473 -37 655 5 22 5 50 12 63
15 12 2 22 3 22 0 0 -20 -74 -129 -116 -169 -67 -66 -76 -72 -138 -100 -91
-40 -200 -48 -286 -21 -105 33 -215 122 -271 221 -33 58 -37 80 -11 70 9 -4
46 -14 82 -21z"/>
<path d="M2035 4312 c-27 -6 -76 -48 -92 -80 -8 -14 -14 -44 -15 -67 -2 -95
74 -163 168 -152 144 16 188 203 66 279 -32 20 -89 29 -127 20z"/>
<path d="M3462 4307 c-46 -14 -93 -76 -97 -129 -10 -114 102 -200 206 -158
118 48 133 195 27 273 -30 22 -88 28 -136 14z"/>
</g>
</svg>
